<mxfile host="app.diagrams.net" agent="Mozilla/5.0 (Windows NT 10.0; Win64; x64) AppleWebKit/537.36 (KHTML, like Gecko) Chrome/139.0.0.0 Safari/537.36" version="28.1.2">
  <diagram name="Page-1" id="ESckblY4qrmDCxvkxFEI">
    <mxGraphModel dx="1280" dy="680" grid="1" gridSize="10" guides="1" tooltips="1" connect="1" arrows="1" fold="1" page="1" pageScale="1" pageWidth="850" pageHeight="1100" math="0" shadow="0">
      <root>
        <mxCell id="0" />
        <mxCell id="1" parent="0" />
        <mxCell id="-ilZWSPBh2E636epSN4n-10" style="rounded=0;orthogonalLoop=1;jettySize=auto;html=1;exitX=0;exitY=1;exitDx=0;exitDy=0;entryX=1;entryY=1;entryDx=0;entryDy=0;" edge="1" parent="1" source="-ilZWSPBh2E636epSN4n-1" target="-ilZWSPBh2E636epSN4n-2">
          <mxGeometry relative="1" as="geometry" />
        </mxCell>
        <mxCell id="-ilZWSPBh2E636epSN4n-12" style="rounded=0;orthogonalLoop=1;jettySize=auto;html=1;exitX=0.5;exitY=1;exitDx=0;exitDy=0;entryX=0.5;entryY=0;entryDx=0;entryDy=0;" edge="1" parent="1" source="-ilZWSPBh2E636epSN4n-1" target="-ilZWSPBh2E636epSN4n-4">
          <mxGeometry relative="1" as="geometry" />
        </mxCell>
        <mxCell id="-ilZWSPBh2E636epSN4n-1" value="&lt;b&gt;Guest&lt;/b&gt;" style="whiteSpace=wrap;html=1;aspect=fixed;" vertex="1" parent="1">
          <mxGeometry x="440" y="370" width="80" height="80" as="geometry" />
        </mxCell>
        <mxCell id="-ilZWSPBh2E636epSN4n-11" style="rounded=0;orthogonalLoop=1;jettySize=auto;html=1;exitX=0.5;exitY=1;exitDx=0;exitDy=0;" edge="1" parent="1" source="-ilZWSPBh2E636epSN4n-2" target="-ilZWSPBh2E636epSN4n-3">
          <mxGeometry relative="1" as="geometry" />
        </mxCell>
        <mxCell id="-ilZWSPBh2E636epSN4n-2" value="&lt;b&gt;Search&lt;br&gt;Process&lt;/b&gt;" style="ellipse;whiteSpace=wrap;html=1;aspect=fixed;" vertex="1" parent="1">
          <mxGeometry x="250" y="250" width="80" height="80" as="geometry" />
        </mxCell>
        <mxCell id="-ilZWSPBh2E636epSN4n-3" value="&lt;b&gt;Properties&lt;br&gt;Database&lt;/b&gt;" style="shape=partialRectangle;whiteSpace=wrap;html=1;bottom=1;right=1;left=1;top=0;fillColor=none;routingCenterX=-0.5;" vertex="1" parent="1">
          <mxGeometry x="140" y="470" width="120" height="60" as="geometry" />
        </mxCell>
        <mxCell id="-ilZWSPBh2E636epSN4n-13" style="rounded=0;orthogonalLoop=1;jettySize=auto;html=1;exitX=0.5;exitY=1;exitDx=0;exitDy=0;" edge="1" parent="1" source="-ilZWSPBh2E636epSN4n-4" target="-ilZWSPBh2E636epSN4n-6">
          <mxGeometry relative="1" as="geometry" />
        </mxCell>
        <mxCell id="-ilZWSPBh2E636epSN4n-4" value="&lt;b&gt;Booking&lt;br&gt;Process&lt;/b&gt;" style="ellipse;whiteSpace=wrap;html=1;aspect=fixed;" vertex="1" parent="1">
          <mxGeometry x="330" y="540" width="80" height="80" as="geometry" />
        </mxCell>
        <mxCell id="-ilZWSPBh2E636epSN4n-15" style="rounded=0;orthogonalLoop=1;jettySize=auto;html=1;exitX=1;exitY=1;exitDx=0;exitDy=0;" edge="1" parent="1" source="-ilZWSPBh2E636epSN4n-5" target="-ilZWSPBh2E636epSN4n-7">
          <mxGeometry relative="1" as="geometry" />
        </mxCell>
        <mxCell id="-ilZWSPBh2E636epSN4n-17" style="rounded=0;orthogonalLoop=1;jettySize=auto;html=1;exitX=1;exitY=0;exitDx=0;exitDy=0;entryX=0.5;entryY=1;entryDx=0;entryDy=0;" edge="1" parent="1" source="-ilZWSPBh2E636epSN4n-5" target="-ilZWSPBh2E636epSN4n-9">
          <mxGeometry relative="1" as="geometry" />
        </mxCell>
        <mxCell id="-ilZWSPBh2E636epSN4n-5" value="&lt;b&gt;Payment&lt;br&gt;Process&lt;/b&gt;" style="ellipse;whiteSpace=wrap;html=1;aspect=fixed;" vertex="1" parent="1">
          <mxGeometry x="740" y="260" width="80" height="80" as="geometry" />
        </mxCell>
        <mxCell id="-ilZWSPBh2E636epSN4n-6" value="&lt;b&gt;Bookings&lt;br&gt;Database&lt;/b&gt;" style="shape=partialRectangle;whiteSpace=wrap;html=1;bottom=1;right=1;left=1;top=0;fillColor=none;routingCenterX=-0.5;" vertex="1" parent="1">
          <mxGeometry x="520" y="540" width="120" height="60" as="geometry" />
        </mxCell>
        <mxCell id="-ilZWSPBh2E636epSN4n-16" style="rounded=0;orthogonalLoop=1;jettySize=auto;html=1;exitX=0.5;exitY=1;exitDx=0;exitDy=0;entryX=0.5;entryY=0;entryDx=0;entryDy=0;" edge="1" parent="1" source="-ilZWSPBh2E636epSN4n-7" target="-ilZWSPBh2E636epSN4n-8">
          <mxGeometry relative="1" as="geometry" />
        </mxCell>
        <mxCell id="-ilZWSPBh2E636epSN4n-7" value="&lt;b&gt;Payment&lt;br&gt;Database&lt;/b&gt;" style="shape=partialRectangle;whiteSpace=wrap;html=1;bottom=1;right=1;left=1;top=0;fillColor=none;routingCenterX=-0.5;" vertex="1" parent="1">
          <mxGeometry x="700" y="470" width="120" height="60" as="geometry" />
        </mxCell>
        <mxCell id="-ilZWSPBh2E636epSN4n-8" value="&lt;b&gt;Payment&lt;br&gt;Gateway&lt;/b&gt;" style="whiteSpace=wrap;html=1;aspect=fixed;" vertex="1" parent="1">
          <mxGeometry x="730" y="620" width="80" height="80" as="geometry" />
        </mxCell>
        <mxCell id="-ilZWSPBh2E636epSN4n-18" style="rounded=0;orthogonalLoop=1;jettySize=auto;html=1;exitX=0.392;exitY=1.07;exitDx=0;exitDy=0;entryX=0.5;entryY=0;entryDx=0;entryDy=0;exitPerimeter=0;" edge="1" parent="1" source="-ilZWSPBh2E636epSN4n-9" target="-ilZWSPBh2E636epSN4n-1">
          <mxGeometry relative="1" as="geometry" />
        </mxCell>
        <mxCell id="-ilZWSPBh2E636epSN4n-19" value="&lt;b&gt;Confirmation&lt;/b&gt;" style="edgeLabel;html=1;align=center;verticalAlign=middle;resizable=0;points=[];" vertex="1" connectable="0" parent="-ilZWSPBh2E636epSN4n-18">
          <mxGeometry x="0.0928" y="-1" relative="1" as="geometry">
            <mxPoint as="offset" />
          </mxGeometry>
        </mxCell>
        <mxCell id="-ilZWSPBh2E636epSN4n-9" value="&lt;b&gt;Email Verification&lt;/b&gt;" style="whiteSpace=wrap;html=1;aspect=fixed;" vertex="1" parent="1">
          <mxGeometry x="490" y="100" width="80" height="80" as="geometry" />
        </mxCell>
        <mxCell id="-ilZWSPBh2E636epSN4n-14" style="rounded=0;orthogonalLoop=1;jettySize=auto;html=1;exitX=1;exitY=1;exitDx=0;exitDy=0;entryX=0;entryY=0.5;entryDx=0;entryDy=0;" edge="1" parent="1" source="-ilZWSPBh2E636epSN4n-1" target="-ilZWSPBh2E636epSN4n-5">
          <mxGeometry relative="1" as="geometry" />
        </mxCell>
      </root>
    </mxGraphModel>
  </diagram>
</mxfile>
